<svg xmlns="http://www.w3.org/2000/svg" viewBox="0 0 100 100" role="img" aria-label="AM Bauhaus monogram">
  <rect x="0" y="0" width="100" height="100" fill="#FFFFFF"/>

  <rect x="4" y="4" width="45" height="45" fill="#FFFF00"/>
  <rect x="51" y="4" width="45" height="45" fill="#0000FF"/>
  <rect x="4" y="51" width="45" height="45" fill="#FF0000"/>
  <rect x="51" y="51" width="45" height="45" fill="#FFFFFF"/>

  <line x1="50" y1="0" x2="50" y2="100" stroke="#000000" stroke-width="6"/>
  <line x1="0" y1="50" x2="100" y2="50" stroke="#000000" stroke-width="6"/>

  <rect x="12" y="22" width="6" height="56" fill="#000000"/>
  <rect x="34" y="22" width="6" height="56" fill="#000000"/>
  <rect x="18" y="44" width="16" height="6" fill="#000000"/>

  <rect x="58" y="22" width="6" height="56" fill="#000000"/>
  <rect x="84" y="22" width="6" height="56" fill="#000000"/>
  <polygon points="64,22 74,45 84,22 78,22 74,31 70,22" fill="#000000"/>

  <rect x="0" y="0" width="100" height="100" fill="none" stroke="#000000" stroke-width="8"/>
</svg>
